<svg width="200" height="200" viewBox="0 0 200 200" fill="none" xmlns="http://www.w3.org/2000/svg">
<circle cx="100" cy="100" r="100" fill="url(#paint0_linear_46_8)"/>
<g filter="url(#filter0_d_46_8)">
<path d="M93.75 113.542C92.9461 113.48 92.1982 113.106 91.6667 112.5L79.1667 100C78.8882 99.4169 78.7973 98.7617 78.9066 98.1248C79.0159 97.4879 79.3199 96.9005 79.7769 96.4436C80.2338 95.9866 80.8212 95.6825 81.4581 95.5733C82.0951 95.464 82.7502 95.5549 83.3333 95.8334L93.625 106.125L129.167 70.8334C129.75 70.5549 130.405 70.464 131.042 70.5733C131.679 70.6825 132.266 70.9866 132.723 71.4436C133.18 71.9005 133.484 72.4879 133.593 73.1248C133.703 73.7617 133.612 74.4169 133.333 75L95.8333 112.5C95.3018 113.106 94.5539 113.48 93.75 113.542Z" fill="white"/>
<path d="M93.7502 110.341L93.6936 110.284L95.7385 108.254L109.769 94.3222L93.7502 110.341Z" stroke="white" stroke-width="6"/>
</g>
<path d="M96.4429 65.6917C101.016 65.204 105.641 65.6466 110.039 66.9934L110.181 67.0374L110.329 67.0667C110.346 67.0701 110.362 67.0771 110.376 67.0872C110.391 67.0972 110.403 67.1103 110.412 67.1252C110.421 67.1401 110.426 67.1568 110.428 67.1741C110.43 67.1913 110.429 67.2092 110.424 67.2258C110.419 67.2424 110.41 67.2576 110.399 67.2708C110.388 67.2839 110.374 67.2945 110.358 67.302C110.342 67.3094 110.325 67.3142 110.308 67.3147C110.291 67.3152 110.273 67.3115 110.257 67.3049L110.126 67.2522L109.991 67.2112L109.157 66.9709C104.983 65.8267 100.63 65.4734 96.3218 65.9319C92.0476 66.366 87.8977 67.6096 84.0933 69.594L83.3423 69.9983C79.4841 72.1268 76.0726 74.9796 73.2954 78.4006C70.4383 81.8862 68.3048 85.9071 67.019 90.2268C65.732 94.5513 65.3205 99.0891 65.8091 103.574V103.573C66.2739 108.123 67.657 112.531 69.8735 116.531V116.532C72.0021 120.391 74.8548 123.802 78.2759 126.579V126.578C81.7615 129.436 85.7813 131.57 90.1011 132.856C94.4258 134.143 98.9641 134.554 103.45 134.066L103.449 134.065C107.998 133.6 112.406 132.218 116.407 130.001L116.408 130.002C120.266 127.874 123.677 125.02 126.455 121.599L126.454 121.598C129.311 118.112 131.445 114.093 132.731 109.774C134.014 105.462 134.427 100.938 133.945 96.4651C133.938 96.3896 133.961 96.3136 134.009 96.2551C134.057 96.197 134.127 96.1598 134.202 96.1526C134.277 96.1454 134.352 96.169 134.411 96.217C134.469 96.2653 134.506 96.335 134.513 96.4104L134.515 96.4221L134.516 96.4338C135.214 103.177 133.91 109.976 130.767 115.982C127.624 121.988 122.782 126.935 116.844 130.205L116.818 130.22L116.792 130.236C112.773 132.556 108.314 134.007 103.702 134.5H100.004C93.8385 134.49 87.7875 132.827 82.4819 129.686C77.1765 126.544 72.8097 122.038 69.8364 116.637L69.8306 116.626L69.8247 116.616L69.4136 115.859C67.4048 112.047 66.1545 107.878 65.7358 103.584L65.7339 103.565L65.6743 102.933C65.1155 96.4019 66.4284 89.8419 69.4663 84.0237C72.6021 78.0181 77.4363 73.0681 83.3667 69.7922L83.3755 69.7883L83.3833 69.7834C87.3976 67.5331 91.8362 66.1411 96.4165 65.6946L96.4292 65.6926L96.4429 65.6917Z" fill="white" stroke="white" stroke-width="6"/>
<defs>
<filter id="filter0_d_46_8" x="74.8616" y="70.5283" width="62.7769" height="51.0134" filterUnits="userSpaceOnUse" color-interpolation-filters="sRGB">
<feFlood flood-opacity="0" result="BackgroundImageFix"/>
<feColorMatrix in="SourceAlpha" type="matrix" values="0 0 0 0 0 0 0 0 0 0 0 0 0 0 0 0 0 0 127 0" result="hardAlpha"/>
<feOffset dy="4"/>
<feGaussianBlur stdDeviation="2"/>
<feComposite in2="hardAlpha" operator="out"/>
<feColorMatrix type="matrix" values="0 0 0 0 0 0 0 0 0 0 0 0 0 0 0 0 0 0 0.25 0"/>
<feBlend mode="normal" in2="BackgroundImageFix" result="effect1_dropShadow_46_8"/>
<feBlend mode="normal" in="SourceGraphic" in2="effect1_dropShadow_46_8" result="shape"/>
</filter>
<linearGradient id="paint0_linear_46_8" x1="200" y1="100" x2="0" y2="100" gradientUnits="userSpaceOnUse">
<stop stop-color="#3DD3D8"/>
<stop offset="1" stop-color="#34D464"/>
</linearGradient>
</defs>
</svg>
